<svg xmlns="http://www.w3.org/2000/svg" viewBox="0 0 240 320" fill="none" aria-hidden="true">
  <!-- Neutral football player bust silhouette for missing headshots -->
  <defs>
    <linearGradient id="silBody" x1="120" y1="40" x2="120" y2="300" gradientUnits="userSpaceOnUse">
      <stop stop-color="#3A4454"/>
      <stop offset="1" stop-color="#1A222E"/>
    </linearGradient>
  </defs>
  <!-- Head -->
  <ellipse cx="120" cy="78" rx="42" ry="48" fill="url(#silBody)"/>
  <!-- Neck -->
  <path fill="url(#silBody)" d="M98 118c6 18 14 28 22 28s16-10 22-28c-8 6-16 9-22 9s-14-3-22-9Z"/>
  <!-- Shoulders / jersey bust -->
  <path fill="url(#silBody)" d="M28 300c8-72 34-118 92-118s84 46 92 118H28Z"/>
  <!-- Helmet-ish brow ridge for sport read -->
  <path fill="#121820" opacity="0.35" d="M78 62c10-18 28-28 42-28s32 10 42 28c-14-8-28-12-42-12s-28 4-42 12Z"/>
</svg>
